<?xml version="1.0" standalone="no"?>
<!DOCTYPE svg PUBLIC "-//W3C//DTD SVG 20010904//EN"
 "http://www.w3.org/TR/2001/REC-SVG-20010904/DTD/svg10.dtd">
<svg version="1.0" xmlns="http://www.w3.org/2000/svg"
 width="334.000000pt" height="334.000000pt" viewBox="0 0 334.000000 334.000000"
 preserveAspectRatio="xMidYMid meet">
<metadata>
Created by potrace 1.11, written by Peter Selinger 2001-2013
</metadata>
<g transform="translate(0.000000,334.000000) scale(0.100000,-0.100000)"
fill="#000000" stroke="none">
<path d="M19 3338 c-1 -2 -2 -57 -3 -123 l-1 -120 245 -5 245 -5 0 -1050 c-1
-953 -4 -1179 -20 -1270 -36 -199 -112 -326 -253 -418 -57 -37 -148 -80 -215
-101 -15 -5 -17 -20 -17 -126 l0 -122 33 7 c70 16 195 59 257 90 254 128 392
346 446 700 4 28 8 611 9 1298 l1 1247 -363 0 c-200 0 -364 -1 -364 -2z"/>
</g>
</svg>
