<?xml version="1.0"?><svg fill="#000000" xmlns="http://www.w3.org/2000/svg"  viewBox="0 0 30 30" width="30px" height="30px">    <path d="M 0.34765625 11 C -0.00634375 11 -0.12173438 11.478812 0.19726562 11.632812 C 1.9542656 12.475813 4.5126563 14.197328 4.2226562 16.986328 C 4.1666562 17.517328 4.6163906 17.974422 5.1503906 17.982422 C 7.7463906 18.019422 13.92 18.58 15 23 C 16.08 18.58 22.253609 18.018469 24.849609 17.980469 C 25.383609 17.972469 25.832344 17.516375 25.777344 16.984375 C 25.487344 14.195375 28.045734 12.474859 29.802734 11.630859 C 30.122734 11.477859 30.006344 11 29.652344 11 L 20.773438 11 C 20.338437 11 19.958516 11.293797 19.853516 11.716797 C 19.656516 12.512797 19.240047 13.71 18.498047 13.875 C 17.436047 14.125 16.394531 14.512219 16.269531 13.824219 C 16.269531 13.276219 16.146406 12.593031 16.066406 12.207031 C 16.048406 12.121031 15.926438 12.113266 15.898438 12.197266 L 15.5625 13.1875 C 15.5625 13.1875 15.438 13 15 13 C 14.563 13 14.4375 13.1875 14.4375 13.1875 L 14.101562 12.197266 C 14.073563 12.113266 13.951594 12.121031 13.933594 12.207031 C 13.853594 12.593031 13.730469 13.276219 13.730469 13.824219 C 13.605469 14.512219 12.563953 14.125 11.501953 13.875 C 10.759953 13.711 10.343484 12.513797 10.146484 11.716797 C 10.041484 11.293797 9.6635156 11 9.2285156 11 L 0.34765625 11 z"/></svg>